# xmcd
#
# Track frame offsets:
# 150
# 15552
# 28818
# 43509
# 58074
# 76462
# 91374
# 103735
# 118646
# 130643
# 140208
# 151930
# 167029
# 178427
#
# Disc length: 2516 seconds
#
#
# Revision: 0
# Processed by: cddbd v1.5.1PL0 Copyright (c) Steve Scherf et al.
# Submitted via: FreeRIP 2.931 
#
DISCID=be09d20e
DTITLE=Goiano and Paranaense - O poder do criador
DYEAR=1900
DGENRE=sertanejo
TTITLE0=Duas pedras que se rolam
TTITLE1=O poder do criador
TTITLE2=O peso da solidão
TTITLE3=A viola e a pescaria
TTITLE4=Isto já virou saudade
TTITLE5=Te amei além de mim
TTITLE6=O trono da saudade
TTITLE7=Paixão sem limite
TTITLE8=Viola cultura
TTITLE9=3a. perna
TTITLE10=O rei do fumo
TTITLE11=Por amor a gente chora
TTITLE12=Sinep
TTITLE13=O pangaré
EXTD=
EXTT0=
EXTT1=
EXTT2=
EXTT3=
EXTT4=
EXTT5=
EXTT6=
EXTT7=
EXTT8=
EXTT9=
EXTT10=
EXTT11=
EXTT12=
EXTT13=
PLAYORDER=
